<?xml version="1.0" encoding="UTF-8" standalone="no"?>
<!-- Created with Inkscape (http://www.inkscape.org/) -->

<svg
   xmlns:dc="http://purl.org/dc/elements/1.1/"
   xmlns:cc="http://creativecommons.org/ns#"
   xmlns:rdf="http://www.w3.org/1999/02/22-rdf-syntax-ns#"
   xmlns:svg="http://www.w3.org/2000/svg"
   xmlns="http://www.w3.org/2000/svg"
   xmlns:sodipodi="http://sodipodi.sourceforge.net/DTD/sodipodi-0.dtd"
   xmlns:inkscape="http://www.inkscape.org/namespaces/inkscape"
   width="65mm"
   height="20mm"
   viewBox="0 0 65 20"
   version="1.1"
   id="svg8"
   inkscape:version="0.92.1 r15371"
   sodipodi:docname="logo.svg">
  <defs
     id="defs2" />
  <sodipodi:namedview
     id="base"
     pagecolor="#ffffff"
     bordercolor="#666666"
     borderopacity="1.0"
     inkscape:pageopacity="0.0"
     inkscape:pageshadow="2"
     inkscape:zoom="3.0580493"
     inkscape:cx="114.61623"
     inkscape:cy="46.937702"
     inkscape:document-units="mm"
     inkscape:current-layer="layer1"
     showgrid="false"
     inkscape:window-width="1024"
     inkscape:window-height="715"
     inkscape:window-x="-8"
     inkscape:window-y="-8"
     inkscape:window-maximized="1" />
  <metadata
     id="metadata5">
    <rdf:RDF>
      <cc:Work
         rdf:about="">
        <dc:format>image/svg+xml</dc:format>
        <dc:type
           rdf:resource="http://purl.org/dc/dcmitype/StillImage" />
        <dc:title></dc:title>
      </cc:Work>
    </rdf:RDF>
  </metadata>
  <g
     inkscape:label="Layer 1"
     inkscape:groupmode="layer"
     id="layer1"
     transform="translate(0,-277)">
    <path
       style="fill:#ff6600;stroke-width:0.08519252"
       d="m 3.6172473,295.53174 c -3.67131265,-1.84596 -3.52385641,-1.75495 -3.58643577,-2.21341 -0.0273111,-0.2001 -0.038609,-1.73311 -0.0251065,-3.4067 l 0.0245499,-3.0429 3.29502777,-1.66209 3.2950276,-1.6621 0.041709,2.98992 c 0.044624,3.19879 0.049196,3.22971 0.4588012,3.10103 0.7268511,-0.22833 5.5151805,-2.68891 5.5810455,-2.86793 0.0348,-0.0946 -6.63e-4,-0.2114 -0.09304,-0.3068 -0.08207,-0.0848 -1.425533,-0.79404 -2.9854576,-1.57626 l -2.8362255,-1.42219 -0.024071,-2.95377 c -0.013239,-1.62458 -0.0013,-3.08572 0.02651,-3.24698 0.083634,-0.48477 -0.065348,-0.54459 5.1364471,2.06229 0.670022,0.33578 1.28002,0.67496 1.355551,0.75374 0.125107,0.13049 0.137327,0.73767 0.137327,6.82287 0,6.4071 -0.0064,6.68563 -0.155518,6.82644 -0.166517,0.15717 -5.6750222,2.95133 -6.215624,3.15282 -0.1778186,0.0663 -0.3655103,0.12041 -0.4170921,0.12028 -0.051582,-1.3e-4 -1.4076252,-0.66084 -3.0134297,-1.46826 z"
       id="path8"
       inkscape:connector-curvature="0" />
    <text
       xml:space="preserve"
       style="font-style:normal;font-variant:normal;font-weight:normal;font-stretch:normal;font-size:17.64458275px;line-height:1.25;font-family:Fonarto;-inkscape-font-specification:'Fonarto, Normal';font-variant-ligatures:normal;font-variant-caps:normal;font-variant-numeric:normal;font-feature-settings:normal;text-align:start;letter-spacing:0px;word-spacing:0px;writing-mode:lr-tb;text-anchor:start;fill:#ff6600;fill-opacity:1;stroke:none;stroke-width:0.26466873"
       x="16.63748"
       y="291.45569"
       id="text12"
       transform="scale(0.99475699,1.0052706)"><tspan
         sodipodi:role="line"
         id="tspan10"
         x="16.63748"
         y="291.45569"
         style="font-style:normal;font-variant:normal;font-weight:normal;font-stretch:normal;font-size:17.64458275px;font-family:Fonarto;-inkscape-font-specification:'Fonarto, Normal';font-variant-ligatures:normal;font-variant-caps:normal;font-variant-numeric:normal;font-feature-settings:normal;text-align:start;writing-mode:lr-tb;text-anchor:start;fill:#ff6600;stroke-width:0.26466873">Daraz</tspan></text>
  </g>
</svg>
